<?xml version="1.0" encoding="UTF-8" standalone="no"?>
<svg width="43px" height="42px" viewBox="0 0 43 42" version="1.1" xmlns="http://www.w3.org/2000/svg" xmlns:xlink="http://www.w3.org/1999/xlink" xmlns:sketch="http://www.bohemiancoding.com/sketch/ns">
    <!-- Generator: Sketch 3.5.2 (25235) - http://www.bohemiancoding.com/sketch -->
    <title>bottom-bar-copy</title>
    <desc>Created with Sketch.</desc>
    <defs></defs>
    <g id="Page-1" stroke="none" stroke-width="1" fill="none" fill-rule="evenodd" sketch:type="MSPage">
        <g id="logo_black" sketch:type="MSLayerGroup" fill="#FFFFFF">
            <g id="Page-1" sketch:type="MSShapeGroup">
                <g id="landing-1b_moreLite">
                    <g id="bottom-bar-copy">
                        <g id="LOGO-white-Copy-+-@2015-TableHero-all-">
                            <g id="LOGO-BLACK-Copy">
                                <path d="M6.85552447,14.1331109 C6.40361769,14.1331109 6.03745138,14.4948254 6.03745138,14.9411233 L6.03745138,18.3527694 C6.03745138,18.7990673 6.40361769,19.1608964 6.85552447,19.1608964 L8.32100189,19.1608964 C8.7725606,19.1608964 9.13907498,18.7990673 9.13907498,18.3527694 L9.13907498,18.0049229 C9.13907498,17.558625 9.5052413,17.1969105 9.95703205,17.1969105 L18.7392225,17.1969105 C19.1907812,17.1969105 19.5571796,17.558625 19.5571796,18.0049229 L19.5571796,26.2874511 C19.5571796,26.733749 19.1907812,27.0955781 18.7392225,27.0955781 L16.7965455,27.0955781 C16.3446387,27.0955781 15.9784724,27.4574072 15.9784724,27.9037051 L15.9784724,29.3513653 C15.9784724,29.7976632 16.3446387,30.1594923 16.7965455,30.1594923 L25.4195533,30.1594923 C25.871112,30.1594923 26.2376264,29.7976632 26.2376264,29.3513653 L26.2376264,27.9037051 C26.2376264,27.4574072 25.871112,27.0955781 25.4195533,27.0955781 L23.4768763,27.0955781 C23.0249695,27.0955781 22.6588032,26.733749 22.6588032,26.2874511 L22.6588032,18.0049229 C22.6588032,17.558625 23.0249695,17.1969105 23.4768763,17.1969105 L32.2589507,17.1969105 C32.7106254,17.1969105 33.0770238,17.558625 33.0770238,18.0049229 L33.0770238,18.3527694 C33.0770238,18.7990673 33.4431901,19.1608964 33.8950969,19.1608964 L35.3604583,19.1608964 C35.8123651,19.1608964 36.1785314,18.7990673 36.1785314,18.3527694 L36.1785314,14.9411233 C36.1785314,14.4948254 35.8123651,14.1331109 35.3604583,14.1331109 L33.0770238,14.1331109 L6.85552447,14.1331109 Z" id="Fill-13"></path>
                                <path d="M4.47451524,38.8391499 L37.6285778,38.8391499 C38.5255461,38.8391499 39.2526577,38.1208785 39.2526577,37.2348155 L39.2526577,4.48383841 C39.2526577,3.59777546 38.5255461,2.87950402 37.6285778,2.87950402 L4.47451524,2.87950402 C3.57743098,2.87950402 2.85043537,3.59777546 2.85043537,4.48383841 L2.85043537,37.2348155 C2.85043537,38.1208785 3.57743098,38.8391499 4.47451524,38.8391499 M40.4788972,41.6548152 L1.62407987,41.6548152 C0.72722765,41.6548152 0,40.9365438 0,40.0504809 L0,1.6681731 C0,0.78211015 0.72722765,0.0638387095 1.62407987,0.0638387095 L40.4788972,0.0638387095 C41.3757494,0.0638387095 42.1029771,0.78211015 42.1029771,1.6681731 L42.1029771,40.0504809 C42.1029771,40.9365438 41.3757494,41.6548152 40.4788972,41.6548152" id="Fill-15"></path>
                            </g>
                        </g>
                    </g>
                </g>
            </g>
        </g>
    </g>
</svg>