<?xml version="1.0" encoding="UTF-8" standalone="no"?>
<svg width="90px" height="82px" viewBox="0 0 90 82" version="1.1" xmlns="http://www.w3.org/2000/svg" xmlns:xlink="http://www.w3.org/1999/xlink" xmlns:sketch="http://www.bohemiancoding.com/sketch/ns">
    <!-- Generator: Sketch 3.5.2 (25235) - http://www.bohemiancoding.com/sketch -->
    <title>noun_149011_cc</title>
    <desc>Created with Sketch.</desc>
    <defs></defs>
    <g id="Page-1" stroke="none" stroke-width="1" fill="none" fill-rule="evenodd" sketch:type="MSPage">
        <g id="Desktop-HD" sketch:type="MSArtboardGroup" transform="translate(-783.000000, -669.000000)" fill="#FFFFFF">
            <g id="noun_149011_cc" sketch:type="MSLayerGroup" transform="translate(783.000000, 669.000000)">
                <g id="Group" sketch:type="MSShapeGroup">
                    <path d="M89.772,42.247 C89.796,42.178 89.816,42.109 89.835,42.038 C89.931,41.709 89.997,41.37 89.999,41.012 L89.999,40.99 C89.997,40.632 89.931,40.292 89.835,39.964 C89.815,39.893 89.796,39.825 89.772,39.755 C89.653,39.419 89.494,39.105 89.291,38.821 C89.281,38.808 89.279,38.791 89.27,38.777 L62.004,1.708 C60.775,0.036 58.428,-0.32 56.756,0.907 C55.086,2.136 54.727,4.487 55.956,6.157 L78.821,37.245 L3.755,37.245 C1.682,37.245 0,38.926 0,41 C0,43.074 1.682,44.755 3.755,44.755 L78.821,44.755 L55.956,75.843 C54.727,77.512 55.086,79.863 56.756,81.093 C57.425,81.586 58.205,81.822 58.978,81.822 C60.131,81.822 61.268,81.293 62.004,80.292 L89.27,43.225 C89.28,43.211 89.282,43.194 89.291,43.181 C89.494,42.897 89.653,42.583 89.772,42.247 L89.772,42.247 Z" id="Shape"></path>
                </g>
            </g>
        </g>
    </g>
</svg>